<?xml version="1.0" standalone="no"?>
<!DOCTYPE svg PUBLIC "-//W3C//DTD SVG 20010904//EN"
 "http://www.w3.org/TR/2001/REC-SVG-20010904/DTD/svg10.dtd">
<svg version="1.0" xmlns="http://www.w3.org/2000/svg"
 width="225.000000pt" height="225.000000pt" viewBox="0 0 225.000000 225.000000"
 preserveAspectRatio="xMidYMid meet">
<metadata>
Created by potrace 1.14, written by Peter Selinger 2001-2017
</metadata>
<g transform="translate(0.000000,225.000000) scale(0.100000,-0.100000)"
fill="#000000" stroke="none">
<path d="M685 2221 c-79 -37 -135 -120 -135 -201 l0 -40 -234 0 c-129 0 -246
-4 -260 -10 -52 -19 -56 -44 -56 -354 l0 -286 29 -32 29 -33 246 -3 246 -3 0
-537 c0 -498 2 -540 19 -577 23 -51 89 -111 138 -125 27 -8 240 -10 715 -8
l676 3 43 30 c24 17 57 53 74 80 l30 48 3 751 3 750 -283 283 -283 283 -480 0
c-446 0 -483 -2 -520 -19z m945 -293 c0 -196 10 -233 77 -278 35 -24 44 -25
215 -28 l178 -4 0 -708 0 -708 -31 -26 -31 -26 -643 0 -644 0 -28 24 -28 24
-3 531 -3 531 346 0 c367 0 400 4 424 48 7 14 11 125 11 320 l0 300 -31 26
-31 26 -360 0 -361 0 6 38 c4 22 17 46 32 60 l26 22 440 0 439 0 0 -172z
m-1110 -143 c0 -38 -1 -38 -67 -35 l-43 2 0 -166 0 -166 -45 0 -45 0 -2 163
-3 162 -52 3 -53 3 0 35 0 34 155 0 155 0 0 -35z m173 -32 l31 -68 31 67 30
68 53 0 c60 0 62 12 -13 -114 l-46 -79 59 -103 60 -104 -54 0 -54 0 -36 72
-36 72 -31 -72 -30 -72 -54 0 -54 0 32 58 c18 31 43 74 56 94 13 21 23 43 23
50 0 6 -22 52 -50 100 -27 48 -50 90 -50 93 0 3 23 5 51 5 l50 0 32 -67z m537
30 l0 -38 -55 3 -55 4 0 -166 0 -166 -45 0 -45 0 0 166 0 166 -55 -4 -55 -3 0
38 0 37 155 0 155 0 0 -37z"/>
<path d="M895 1078 c-50 -29 -58 -75 -20 -113 l24 -25 501 0 c487 0 501 1 520
20 27 27 26 81 -1 106 -20 18 -45 19 -513 21 -359 2 -496 0 -511 -9z"/>
<path d="M895 778 c-50 -29 -58 -75 -20 -113 l24 -25 501 0 c487 0 501 1 520
20 27 27 26 81 -1 106 -20 18 -45 19 -513 21 -359 2 -496 0 -511 -9z"/>
<path d="M894 478 c-22 -10 -44 -47 -44 -74 0 -8 11 -26 25 -39 l24 -25 501 0
c487 0 501 1 520 20 27 27 26 81 -1 106 -20 18 -45 19 -513 21 -326 1 -498 -2
-512 -9z"/>
</g>
</svg>
